<svg width="22" height="22" viewBox="0 0 22 22" fill="none" xmlns="http://www.w3.org/2000/svg">
<path d="M19.6049 0H1.9544C0.875005 0 0 0.875005 0 1.9544V19.6049C0 20.6843 0.875005 21.5593 1.9544 21.5593H19.6049C20.6843 21.5593 21.5593 20.6843 21.5593 19.6049V1.9544C21.5593 0.875005 20.6843 0 19.6049 0Z" fill="#DC395F"/>
<path d="M7.29615 6.86325C8.00304 6.86325 8.59521 6.30219 8.59521 5.56683C8.59521 4.83198 8.00304 4.271 7.29615 4.271C6.58926 4.271 5.99725 4.83198 5.99725 5.56683C5.99725 6.3021 6.58926 6.86325 7.29615 6.86325ZM4.60267 13.8046C4.52633 14.1335 4.48804 14.4887 4.48804 14.7784C4.48804 15.92 5.09932 16.6778 6.39838 16.6778C7.47574 16.6778 8.34917 16.0299 8.97806 14.9837L8.59405 16.5444H10.7334L11.9561 11.5781C12.2618 10.3207 12.854 9.66808 13.7519 9.66808C14.4587 9.66808 14.898 10.1132 14.898 10.8481C14.898 11.061 14.8789 11.2929 14.8025 11.5445L14.1721 13.8272C14.0765 14.1561 14.0385 14.4852 14.0385 14.7945C14.0385 15.8782 14.6687 16.6708 15.9869 16.6708C17.114 16.6708 18.0118 15.936 18.5085 14.1755L17.668 13.847C17.2477 15.0264 16.8847 15.2396 16.5981 15.2396C16.3116 15.2396 16.1587 15.0463 16.1587 14.6596C16.1587 14.4855 16.1971 14.2923 16.2543 14.0596L16.8657 11.8357C17.0185 11.3135 17.0759 10.8504 17.0759 10.425C17.0759 8.76129 16.0824 7.89302 14.8789 7.89302C13.7519 7.89302 12.6056 8.92254 12.0326 10.0061L12.4528 8.06126H9.1863L8.72778 9.77423H10.2561L9.31497 13.5898C8.57594 15.2535 7.2184 15.2805 7.04803 15.2419C6.76827 15.178 6.58934 15.0704 6.58934 14.7023C6.58934 14.4899 6.62755 14.1848 6.72308 13.8169L8.15596 8.06126H4.52633L4.06781 9.77423H5.57686L4.60267 13.8046Z" fill="white"/>
</svg>
