<svg width="23" height="23" viewBox="0 0 23 23" fill="none" xmlns="http://www.w3.org/2000/svg">
<path d="M6.55276 10.215C6.34153 9.93767 5.94709 9.88423 5.6704 10.0955C5.59222 10.1575 5.52915 10.2366 5.48601 10.3269L0.068418 21.2269C-0.0913612 21.5486 0.0382413 21.9396 0.357966 22.1005C0.447714 22.1462 0.546937 22.1697 0.647513 22.1695H8.19556C8.44261 22.1758 8.66995 22.0345 8.77466 21.8093C10.4037 18.4253 9.41624 13.2803 6.55276 10.215Z" fill="url(#paint0_linear_2419_193)"/>
<path d="M10.4692 0.352772C7.69246 4.59382 7.37176 9.97301 9.6252 14.5095L13.303 21.8103C13.4138 22.0303 13.6404 22.1695 13.8883 22.1695H21.515C21.6887 22.1699 21.8554 22.1016 21.9783 21.9797C22.1011 21.8577 22.1699 21.6922 22.1695 21.5198C22.1695 21.4191 22.1464 21.3198 22.1018 21.2294L11.5827 0.349715C11.4808 0.136158 11.264 0 11.0259 0C10.7879 0 10.5711 0.136158 10.4692 0.349715V0.352772Z" fill="#2684FF"/>
<defs>
<linearGradient id="paint0_linear_2419_193" x1="7.69765" y1="11.881" x2="2.52474" y2="20.8917" gradientUnits="userSpaceOnUse">
<stop stop-color="#0052CC"/>
<stop offset="0.92" stop-color="#2684FF"/>
</linearGradient>
</defs>
</svg>
