<svg width="22" height="22" viewBox="0 0 22 22" fill="none" xmlns="http://www.w3.org/2000/svg">
<path d="M7.98923 0C6.78471 0.000888553 5.80987 0.97652 5.81076 2.17873C5.80987 3.38094 6.7856 4.35658 7.99012 4.35746H10.1695V2.17962C10.1704 0.977408 9.19465 0.00177711 7.98923 0C7.99012 0 7.99012 0 7.98923 0ZM7.98923 5.81114H2.17937C0.974844 5.81203 -0.000885405 6.78766 2.42634e-06 7.98987C-0.00177567 9.19208 0.973954 10.1677 2.17848 10.1695H7.98923C9.19376 10.1686 10.1695 9.19297 10.1686 7.99076C10.1695 6.78766 9.19376 5.81203 7.98923 5.81114Z" fill="#36C5F0"/>
<path d="M21.7627 7.98987C21.7636 6.78766 20.7878 5.81203 19.5831 5.81114C18.3785 5.81203 17.4027 6.78766 17.4036 7.98987V10.1695H19.5831C20.7878 10.1686 21.7636 9.19297 21.7627 7.98987ZM15.9514 7.98987V2.17873C15.9523 0.977408 14.9774 0.00177711 13.7728 0C12.5681 0.000888553 11.5923 0.97652 11.5932 2.17873V7.98987C11.5914 9.19208 12.5672 10.1677 13.7719 10.1695C14.9765 10.1686 15.9523 9.19297 15.9514 7.98987Z" fill="#2EB67D"/>
<path d="M13.7726 21.7628C14.9771 21.7619 15.9528 20.7863 15.9519 19.5842C15.9528 18.3821 14.9771 17.4066 13.7726 17.4057H11.5932V19.5842C11.5923 20.7854 12.568 21.761 13.7726 21.7628ZM13.7726 15.9512H19.5833C20.7878 15.9503 21.7636 14.9748 21.7627 13.7727C21.7645 12.5706 20.7887 11.595 19.5842 11.5933H13.7735C12.5689 11.5942 11.5932 12.5697 11.5941 13.7718C11.5932 14.9748 12.568 15.9503 13.7726 15.9512Z" fill="#ECB22E"/>
<path d="M6.0795e-07 13.772C-0.000889125 14.9742 0.974926 15.9498 2.17956 15.9507C3.38419 15.9498 4.36001 14.9742 4.35912 13.772V11.5933H2.17956C0.974926 11.5942 -0.000889125 12.5698 6.0795e-07 13.772ZM5.81126 13.772V19.5831C5.80948 20.7853 6.7853 21.761 7.98993 21.7628C9.19456 21.7619 10.1704 20.7862 10.1695 19.584V13.7738C10.1713 12.5716 9.19545 11.5959 7.99082 11.5942C6.7853 11.5942 5.81037 12.5698 5.81126 13.772Z" fill="#E01E5A"/>
</svg>
