<svg width="22" height="22" viewBox="0 0 22 22" fill="none" xmlns="http://www.w3.org/2000/svg">
<path d="M10.8814 0C4.87155 0 0 4.87155 0 10.8814C0 16.8912 4.87155 21.7627 10.8814 21.7627C16.8912 21.7627 21.7627 16.8912 21.7627 10.8814C21.7627 4.87229 16.8912 0.000742501 10.8814 0ZM15.8717 15.6935C15.6764 16.0143 15.2584 16.1145 14.9391 15.9192C12.3842 14.3577 9.16766 14.0051 5.38016 14.8701C5.01485 14.954 4.65103 14.7253 4.56787 14.36C4.48397 13.9947 4.71191 13.6308 5.07797 13.5477C9.22261 12.601 12.7784 13.0086 15.6467 14.7609C15.966 14.9577 16.0677 15.3742 15.8717 15.6935ZM17.203 12.7317C16.9572 13.1311 16.4345 13.2559 16.0358 13.0108C13.1118 11.2133 8.65237 10.6928 5.19305 11.7427C4.74458 11.8785 4.27087 11.6253 4.13425 11.1776C3.99911 10.7291 4.25231 10.2562 4.70003 10.1195C8.65162 8.92041 13.5648 9.50105 16.9231 11.5652C17.3226 11.811 17.4488 12.3329 17.203 12.7317ZM17.3174 9.64583C13.8098 7.56312 8.02421 7.37155 4.67553 8.38729C4.13796 8.55064 3.5692 8.24696 3.4066 7.70939C3.24399 7.17182 3.54693 6.60306 4.08524 6.43971C7.92917 5.27324 14.3184 5.49822 18.3561 7.89502C18.8395 8.18236 18.9984 8.80681 18.7118 9.28943C18.4259 9.77354 17.8 9.93318 17.3174 9.64583Z" fill="#2EBD59"/>
</svg>
