<svg width="22" height="22" viewBox="0 0 22 22" fill="none" xmlns="http://www.w3.org/2000/svg">
<path d="M18.0763 21.3559H3.88976C1.73884 21.3559 0 19.622 0 17.4773V3.87868C0 1.73388 1.73884 0 3.88976 0H18.0763C20.2273 0 21.9661 1.73388 21.9661 3.87868V17.4773C21.9661 19.622 20.2273 21.3559 18.0763 21.3559Z" fill="#FF26BE"/>
<path d="M17.4643 20.5422H4.10366C2.29109 20.5422 0.813538 19.0704 0.813538 17.2648V4.49762C0.813538 2.69206 2.29109 1.22021 4.10366 1.22021H17.4556C19.2777 1.22021 20.7457 2.69206 20.7457 4.49762V17.2562C20.7544 19.0704 19.2769 20.5422 17.4643 20.5422Z" fill="#2E001F"/>
<path d="M8.72417 9.97335L11.3271 14.9742C11.3735 15.0482 11.3459 15.1232 11.2709 15.1232H9.6531C9.55048 15.1232 9.50408 15.0955 9.45768 15.0027C8.86248 13.7757 8.25836 12.5487 7.63551 11.2289H7.61677C7.05905 12.4747 6.44511 13.7855 5.85081 15.0125C5.80441 15.0866 5.75801 15.1152 5.68305 15.1152H4.15089C4.05809 15.1152 4.04827 15.0411 4.09557 14.9849L6.64232 10.1322L4.17945 5.22417C4.12323 5.1501 4.17945 5.09388 4.23477 5.09388H5.83386C5.92666 5.09388 5.96414 5.11262 6.00073 5.19651C6.58611 6.42351 7.1813 7.688 7.73902 8.92392H7.75776C8.29673 7.69692 8.89193 6.42351 9.46839 5.20543C9.51479 5.13136 9.54245 5.08496 9.63615 5.08496H11.1326C11.2067 5.08496 11.2352 5.14118 11.1888 5.21525L8.72417 9.97335ZM11.7831 11.4886C11.7831 9.32281 13.2243 7.63088 15.5105 7.63088C15.7059 7.63088 15.8076 7.63088 15.9941 7.64962V5.18669C15.9941 5.13047 16.0405 5.09388 16.0869 5.09388H17.5557C17.6298 5.09388 17.6485 5.12155 17.6485 5.16795V13.7017C17.6485 13.9524 17.6485 14.2683 17.6949 14.6128C17.6949 14.669 17.6762 14.6868 17.6209 14.7154C16.8401 15.0875 16.0218 15.2544 15.241 15.2544C13.2234 15.2624 11.7822 14.0176 11.7831 11.4886ZM15.9932 9.10954C15.8629 9.05332 15.6773 9.01673 15.4542 9.01673C14.2826 9.01673 13.4652 9.91802 13.4652 11.4154C13.4652 13.1261 14.3022 13.8141 15.3525 13.8141C15.5756 13.8141 15.8174 13.7864 15.9941 13.7115V9.10954H15.9932Z" fill="#FFD9F2"/>
</svg>
